<mxfile host="app.diagrams.net" modified="2024-01-01T17:04:49.368Z" agent="Mozilla/5.0 (Windows NT 10.0; Win64; x64; rv:121.0) Gecko/20100101 Firefox/121.0" etag="RLXNw-GWqOLkRV43VodW" version="22.1.16" type="device">
  <diagram name="Page-1" id="jr_epOJPyc_aueluBdOg">
    <mxGraphModel dx="1520" dy="1214" grid="0" gridSize="10" guides="1" tooltips="1" connect="1" arrows="1" fold="1" page="0" pageScale="1" pageWidth="850" pageHeight="1100" math="0" shadow="0">
      <root>
        <mxCell id="0" />
        <mxCell id="1" parent="0" />
        <mxCell id="MWn83Oy3D5ra3sKZTmh8-6" style="edgeStyle=orthogonalEdgeStyle;rounded=0;orthogonalLoop=1;jettySize=auto;html=1;exitX=0.5;exitY=1;exitDx=0;exitDy=0;exitPerimeter=0;entryX=0.5;entryY=0;entryDx=0;entryDy=0;" edge="1" parent="1" source="ePwk1lkPYL17RqrotQUX-3" target="ePwk1lkPYL17RqrotQUX-4">
          <mxGeometry relative="1" as="geometry" />
        </mxCell>
        <mxCell id="ePwk1lkPYL17RqrotQUX-3" value="star" style="strokeWidth=2;html=1;shape=mxgraph.flowchart.terminator;whiteSpace=wrap;" parent="1" vertex="1">
          <mxGeometry x="-277" y="-438" width="100" height="60" as="geometry" />
        </mxCell>
        <mxCell id="MWn83Oy3D5ra3sKZTmh8-7" style="edgeStyle=orthogonalEdgeStyle;rounded=0;orthogonalLoop=1;jettySize=auto;html=1;exitX=0.5;exitY=1;exitDx=0;exitDy=0;entryX=0.5;entryY=0;entryDx=0;entryDy=0;" edge="1" parent="1" source="ePwk1lkPYL17RqrotQUX-4" target="MWn83Oy3D5ra3sKZTmh8-2">
          <mxGeometry relative="1" as="geometry" />
        </mxCell>
        <mxCell id="ePwk1lkPYL17RqrotQUX-4" value="&lt;div&gt;masukan &lt;br&gt;&lt;/div&gt;&lt;div&gt;alas&lt;br&gt;&lt;/div&gt;" style="shape=parallelogram;html=1;strokeWidth=2;perimeter=parallelogramPerimeter;whiteSpace=wrap;rounded=1;arcSize=12;size=0.23;" parent="1" vertex="1">
          <mxGeometry x="-278" y="-340" width="100" height="60" as="geometry" />
        </mxCell>
        <mxCell id="MWn83Oy3D5ra3sKZTmh8-8" style="edgeStyle=orthogonalEdgeStyle;rounded=0;orthogonalLoop=1;jettySize=auto;html=1;exitX=0.5;exitY=1;exitDx=0;exitDy=0;entryX=0.5;entryY=0;entryDx=0;entryDy=0;" edge="1" parent="1" source="MWn83Oy3D5ra3sKZTmh8-2" target="MWn83Oy3D5ra3sKZTmh8-3">
          <mxGeometry relative="1" as="geometry" />
        </mxCell>
        <mxCell id="MWn83Oy3D5ra3sKZTmh8-2" value="&lt;div&gt;masukan&lt;/div&gt;&lt;div&gt;tinggi&lt;br&gt;&lt;/div&gt;" style="shape=parallelogram;html=1;strokeWidth=2;perimeter=parallelogramPerimeter;whiteSpace=wrap;rounded=1;arcSize=12;size=0.23;" vertex="1" parent="1">
          <mxGeometry x="-278" y="-242" width="100" height="60" as="geometry" />
        </mxCell>
        <mxCell id="MWn83Oy3D5ra3sKZTmh8-9" style="edgeStyle=orthogonalEdgeStyle;rounded=0;orthogonalLoop=1;jettySize=auto;html=1;exitX=0.5;exitY=1;exitDx=0;exitDy=0;entryX=0.5;entryY=0;entryDx=0;entryDy=0;" edge="1" parent="1" source="MWn83Oy3D5ra3sKZTmh8-3" target="MWn83Oy3D5ra3sKZTmh8-4">
          <mxGeometry relative="1" as="geometry" />
        </mxCell>
        <mxCell id="MWn83Oy3D5ra3sKZTmh8-3" value="luas= 1/2 *(alas*tinggi)" style="rounded=1;whiteSpace=wrap;html=1;absoluteArcSize=1;arcSize=14;strokeWidth=2;" vertex="1" parent="1">
          <mxGeometry x="-316.5" y="-144" width="177" height="76" as="geometry" />
        </mxCell>
        <mxCell id="MWn83Oy3D5ra3sKZTmh8-4" value="&lt;div&gt;tampil&lt;/div&gt;&lt;div&gt;luas&lt;/div&gt;&lt;div&gt;segitiga&lt;br&gt;&lt;/div&gt;" style="shape=parallelogram;html=1;strokeWidth=2;perimeter=parallelogramPerimeter;whiteSpace=wrap;rounded=1;arcSize=12;size=0.23;" vertex="1" parent="1">
          <mxGeometry x="-278" y="-30" width="100" height="60" as="geometry" />
        </mxCell>
        <mxCell id="MWn83Oy3D5ra3sKZTmh8-5" value="end" style="strokeWidth=2;html=1;shape=mxgraph.flowchart.terminator;whiteSpace=wrap;" vertex="1" parent="1">
          <mxGeometry x="-278" y="68" width="100" height="60" as="geometry" />
        </mxCell>
        <mxCell id="MWn83Oy3D5ra3sKZTmh8-10" style="edgeStyle=orthogonalEdgeStyle;rounded=0;orthogonalLoop=1;jettySize=auto;html=1;exitX=0.5;exitY=1;exitDx=0;exitDy=0;entryX=0.5;entryY=0;entryDx=0;entryDy=0;entryPerimeter=0;" edge="1" parent="1" source="MWn83Oy3D5ra3sKZTmh8-4" target="MWn83Oy3D5ra3sKZTmh8-5">
          <mxGeometry relative="1" as="geometry" />
        </mxCell>
      </root>
    </mxGraphModel>
  </diagram>
</mxfile>
